<?xml version="1.0" encoding="UTF-8" standalone="no"?>
<svg
   xmlns:dc="http://purl.org/dc/elements/1.1/"
   xmlns:cc="http://creativecommons.org/ns#"
   xmlns:rdf="http://www.w3.org/1999/02/22-rdf-syntax-ns#"
   xmlns:svg="http://www.w3.org/2000/svg"
   xmlns="http://www.w3.org/2000/svg"
   version="1.1"
   id="svg4968"
   viewBox="0 0 334.80084 45.088749"
   height="12.725047mm"
   width="94.488235mm">
  <defs
     id="defs4970">
    <clipPath
       id="clipPath244"
       clipPathUnits="userSpaceOnUse">
      <path
         id="path246"
         d="M 0,842 1366,842 1366,0 0,0 0,842 Z" />
    </clipPath>
    <clipPath
       id="clipPath244-3"
       clipPathUnits="userSpaceOnUse">
      <path
         id="path246-6"
         d="M 0,842 1366,842 1366,0 0,0 0,842 Z" />
    </clipPath>
    <clipPath
       id="clipPath330"
       clipPathUnits="userSpaceOnUse">
      <path
         id="path332"
         d="M 0,842 1366,842 1366,0 0,0 0,842 Z" />
    </clipPath>
  </defs>
  <metadata
     id="metadata4973">
    <rdf:RDF>
      <cc:Work
         rdf:about="">
        <dc:format>image/svg+xml</dc:format>
        <dc:type
           rdf:resource="http://purl.org/dc/dcmitype/StillImage" />
        <dc:title></dc:title>
      </cc:Work>
    </rdf:RDF>
  </metadata>
  <g
     transform="translate(9.208225,-439.58287)"
     id="layer1">
    <g
       id="g5839"
       transform="matrix(1.25,0,0,-1.25,-1167.4479,188.9127)">
      <flowRoot
         transform="matrix(0.8,0,0,-0.8,744.2979,49.587)"
         style="font-style:normal;font-weight:normal;font-size:40px;line-height:125%;font-family:sans-serif;letter-spacing:0px;word-spacing:0px;fill:#000000;fill-opacity:1;stroke:none;stroke-width:1px;stroke-linecap:butt;stroke-linejoin:miter;stroke-opacity:1"
         id="flowRoot6003"
         xml:space="preserve"><flowRegion
           id="flowRegion6005"><rect
             y="97.717628"
             x="40"
             height="84.285713"
             width="197.14285"
             id="rect6007" /></flowRegion><flowPara
           id="flowPara6009"></flowPara></flowRoot>      <flowRoot
         transform="matrix(0.8,0,0,-0.8,744.2979,49.587)"
         style="font-style:normal;font-weight:normal;font-size:40px;line-height:125%;font-family:sans-serif;letter-spacing:0px;word-spacing:0px;fill:#000000;fill-opacity:1;stroke:none;stroke-width:1px;stroke-linecap:butt;stroke-linejoin:miter;stroke-opacity:1"
         id="flowRoot6011"
         xml:space="preserve"><flowRegion
           id="flowRegion6013"><rect
             y="-57.282375"
             x="-89.285713"
             height="145"
             width="296.42856"
             id="rect6015" /></flowRegion><flowPara
           id="flowPara6017"></flowPara></flowRoot>      <g
         transform="translate(926.59174,-201.93816)"
         id="g170">
        <path
           id="path172"
           style="fill:#1d1d1b;fill-opacity:1;fill-rule:evenodd;stroke:none"
           d="m 0,0 188.071,0.002 0,-27.993 L 0,-27.99 0,0 Z" />
      </g>
      <g
         transform="translate(1187.9194,-236.60714)"
         id="g174">
        <path
           id="path176"
           style="fill:#fab900;fill-opacity:1;fill-rule:evenodd;stroke:none"
           d="M 0,0 -6.211,6.188 C -6.962,6.073 -7.732,6.013 -8.516,6.013 c -8.3,0 -15.028,6.728 -15.028,15.03 0,8.3 6.728,15.028 15.028,15.028 8.301,0 15.029,-6.728 15.029,-15.028 0,-4.755 -2.208,-8.994 -5.654,-11.748 L 5.085,5.084 0,0 Z m -16.331,21.043 c 0,-2.772 1.444,-5.208 3.62,-6.596 l 4.192,4.193 4.204,-4.19 c 2.173,1.389 3.615,3.822 3.615,6.593 0,4.315 -3.5,7.814 -7.816,7.814 -4.316,0 -7.815,-3.499 -7.815,-7.814" />
      </g>
      <g
         transform="translate(1143.2055,-201.92156)"
         id="g178">
        <path
           id="path180"
           style="fill:#1d1d1b;fill-opacity:1;fill-rule:evenodd;stroke:none"
           d="m 0,0 0,-27.986 6.976,0 0,11.298 11.93,0 0,5.43 -11.93,0 0,5.867 11.93,0 0,5.391 L 0,0 Z" />
      </g>
      <path
         id="path182"
         style="fill:#1d1d1b;fill-opacity:1;fill-rule:evenodd;stroke:none"
         d="m 1139.3435,-201.92726 1.279,0 0,-27.985 -1.279,0 0,27.985 z" />
      <path
         id="path184"
         style="fill:#1d1d1b;fill-opacity:1;fill-rule:evenodd;stroke:none"
         d="m 1134.0865,-201.92726 3.865,0 0,-27.985 -3.865,0 0,27.985 z" />
      <path
         id="path186"
         style="fill:#1d1d1b;fill-opacity:1;fill-rule:evenodd;stroke:none"
         d="m 1128.6325,-201.92726 1.28,0 0,-27.985 -1.28,0 0,27.985 z" />
      <path
         id="path188"
         style="fill:#1d1d1b;fill-opacity:1;fill-rule:evenodd;stroke:none"
         d="m 1123.9215,-201.92726 3.13,0 0,-27.985 -3.13,0 0,27.985 z" />
      <path
         id="path190"
         style="fill:#1d1d1b;fill-opacity:1;fill-rule:evenodd;stroke:none"
         d="m 1118.3135,-201.92726 3.864,0 0,-27.985 -3.864,0 0,27.985 z" />
      <g
         transform="translate(949.65424,-213.70962)"
         id="g192">
        <path
           id="path194"
           style="fill:#ffffff;fill-opacity:1;fill-rule:nonzero;stroke:none"
           d="m 0,0 0,-6.145 -0.849,0 0,6.145 -1.511,0 0,0.72 1.511,0 0,1.309 c 0,0.734 -0.029,0.935 0.086,1.325 0.144,0.431 0.475,0.863 1.439,0.863 0.331,0 0.562,-0.043 0.878,-0.102 l 0,-0.834 C 1.41,3.339 1.137,3.468 0.734,3.468 0.446,3.468 0.317,3.382 0.23,3.281 -0.043,3.008 0,2.734 0,2.101 L 0,0.72 1.554,0.72 1.554,0 0,0 Z" />
      </g>
      <g
         transform="translate(956.92134,-219.85426)"
         id="g196">
        <path
           id="path198"
           style="fill:#ffffff;fill-opacity:1;fill-rule:nonzero;stroke:none"
           d="M 0,0 0,1.237 C -0.115,0.979 -0.202,0.834 -0.273,0.733 c -0.634,-0.878 -1.555,-0.891 -1.914,-0.891 -0.115,0 -0.461,0.013 -0.806,0.129 -0.619,0.202 -1.108,0.705 -1.31,1.324 C -4.447,1.77 -4.49,2.417 -4.49,3.496 l 0,3.368 0.864,0 0,-3.554 c 0,-0.835 0.014,-1.281 0.115,-1.669 0.115,-0.418 0.417,-1.008 1.425,-1.008 0.345,0 1.079,0.014 1.626,0.763 C 0.058,2.101 0,3.021 0,3.856 l 0,3.008 0.849,0 L 0.849,0 0,0 Z" />
      </g>
      <g
         transform="translate(964.30364,-219.85426)"
         id="g200">
        <path
           id="path202"
           style="fill:#ffffff;fill-opacity:1;fill-rule:nonzero;stroke:none"
           d="M 0,0 0,3.568 C 0,4.489 0,5.036 -0.158,5.439 -0.302,5.799 -0.547,5.957 -0.676,6.029 -1.065,6.26 -1.454,6.245 -1.612,6.245 -1.77,6.245 -2.144,6.23 -2.518,6.059 -3.022,5.813 -3.425,5.267 -3.555,4.749 -3.626,4.418 -3.641,3.828 -3.641,3.008 l 0,-3.008 -0.849,0 0,6.864 0.849,0 0,-1.223 c 0.058,0.172 0.159,0.446 0.49,0.762 0.273,0.259 0.762,0.605 1.669,0.605 1.28,0 1.871,-0.705 2.086,-1.18 0.26,-0.547 0.245,-1.094 0.245,-2.26 L 0.849,0 0,0 Z" />
      </g>
      <g
         transform="translate(970.89454,-213.9685)"
         id="g204">
        <path
           id="path206"
           style="fill:#ffffff;fill-opacity:1;fill-rule:nonzero;stroke:none"
           d="m 0,0 c -0.187,0.129 -0.576,0.345 -1.137,0.345 -0.172,0 -0.517,0 -0.892,-0.201 -0.59,-0.317 -1.194,-1.094 -1.194,-2.59 0,-0.231 -0.029,-2.792 2.043,-2.792 0.533,0 0.965,0.143 1.339,0.517 0.561,0.591 0.647,1.468 0.662,2.217 C 0.835,-1.123 0.576,-0.418 0,0 m 0.806,-5.886 0,1.238 c -0.316,-0.907 -1.194,-1.396 -2.115,-1.396 -0.259,0 -0.849,0.043 -1.425,0.432 -1.381,0.906 -1.41,2.82 -1.41,3.166 0,0.417 0.058,2.259 1.482,3.151 0.245,0.158 0.763,0.417 1.482,0.417 0.561,0 1.123,-0.173 1.526,-0.547 0.316,-0.302 0.388,-0.504 0.46,-0.69 l 0,4.388 0.835,0 0,-10.159 -0.835,0 z" />
      </g>
      <g
         transform="translate(978.73774,-216.22826)"
         id="g208">
        <path
           id="path210"
           style="fill:#ffffff;fill-opacity:1;fill-rule:nonzero;stroke:none"
           d="m 0,0 -0.432,-0.115 c -1.338,-0.36 -2.489,-0.633 -2.907,-0.936 -0.259,-0.186 -0.432,-0.503 -0.432,-0.834 0,-0.23 0.101,-0.431 0.13,-0.489 0.317,-0.634 1.094,-0.647 1.252,-0.647 0.835,0 1.856,0.503 2.202,1.294 C -0.058,-1.438 0,-1.151 0,-0.518 L 0,0 Z M 0.302,-3.267 C 0.029,-2.993 0.014,-2.705 0,-2.374 c -0.086,-0.216 -0.202,-0.418 -0.36,-0.59 -0.273,-0.317 -0.993,-0.807 -2.072,-0.807 -0.878,0 -1.353,0.303 -1.641,0.591 -0.172,0.172 -0.518,0.618 -0.518,1.281 0,0.201 0.029,0.662 0.374,1.079 0.518,0.633 1.367,0.835 2.116,1.05 0.432,0.116 0.863,0.245 1.295,0.332 L 0,0.734 0,1.094 c 0,0.259 0.014,0.403 -0.072,0.662 -0.144,0.446 -0.532,0.921 -1.569,0.906 -0.878,0 -1.324,-0.244 -1.554,-0.59 -0.216,-0.331 -0.244,-0.69 -0.259,-1.064 l -0.935,0.158 c 0.029,0.144 0.115,0.733 0.403,1.194 0.316,0.475 0.993,1.051 2.288,1.051 0.691,0 1.626,-0.173 2.101,-0.734 C 0.863,2.13 0.82,1.396 0.82,0.734 l 0,-2.202 C 0.82,-2.13 0.806,-2.59 1.05,-2.792 1.266,-2.964 1.612,-2.95 1.842,-2.95 l 0,-0.676 c -0.806,0 -1.252,0.071 -1.54,0.359" />
      </g>
      <g
         transform="translate(986.36474,-219.35122)"
         id="g212">
        <path
           id="path214"
           style="fill:#ffffff;fill-opacity:1;fill-rule:nonzero;stroke:none"
           d="m 0,0 c -0.316,-0.287 -0.95,-0.676 -2,-0.676 -0.375,0 -1.31,0.029 -2.102,0.778 -1.021,0.963 -1.05,2.388 -1.05,2.777 0,0.517 0.058,0.949 0.216,1.425 0.446,1.41 1.597,2.23 3.08,2.23 1.093,0 1.669,-0.418 2,-0.763 C 0.532,5.368 0.676,5.008 0.748,4.807 L -0.043,4.62 c -0.303,0.763 -1.051,1.151 -1.856,1.151 -0.26,0 -0.864,-0.029 -1.425,-0.503 -0.893,-0.763 -0.907,-2.044 -0.907,-2.346 0,-0.201 0.029,-1.382 0.648,-2.145 0.1,-0.115 0.302,-0.331 0.676,-0.504 0.173,-0.086 0.475,-0.201 0.935,-0.201 0.864,0 1.454,0.404 1.857,1.152 L 0.748,1.022 C 0.561,0.634 0.331,0.288 0,0" />
      </g>
      <path
         id="path216"
         style="fill:#ffffff;fill-opacity:1;fill-rule:nonzero;stroke:none"
         d="m 988.43654,-212.99026 0.835,0 0,-6.864 -0.835,0 0,6.864 z m 0,2.921 0.835,0 0,-1.31 -0.835,0 0,1.31 z" />
      <g
         transform="translate(994.13524,-211.82498)"
         id="g218">
        <path
           id="path220"
           style="fill:#ffffff;fill-opacity:1;fill-rule:nonzero;stroke:none"
           d="m 0,0 -0.763,0 1.612,2.015 1.612,0 L 0,0 Z m -0.144,-1.712 c -0.215,0 -0.748,-0.029 -1.237,-0.389 -0.533,-0.403 -0.979,-1.151 -0.979,-2.576 0,-0.259 -0.029,-1.64 0.906,-2.374 0.217,-0.173 0.62,-0.403 1.282,-0.403 1.007,0 2.215,0.634 2.23,2.807 0.029,2.23 -1.108,2.935 -2.202,2.935 m 2.922,-4.231 c -0.432,-1.381 -1.511,-2.259 -2.965,-2.259 -0.475,0 -1.568,0.086 -2.375,1.151 -0.302,0.417 -0.705,1.152 -0.705,2.374 0,0.303 0.015,0.979 0.317,1.741 0.677,1.742 2.144,1.944 2.821,1.944 0.791,0 1.439,-0.231 2.014,-0.763 0.763,-0.734 1.065,-1.785 1.08,-2.807 0,-0.23 0,-0.776 -0.187,-1.381" />
      </g>
      <g
         transform="translate(1003.1869,-219.85426)"
         id="g222">
        <path
           id="path224"
           style="fill:#ffffff;fill-opacity:1;fill-rule:nonzero;stroke:none"
           d="M 0,0 0,3.568 C 0,4.489 0,5.036 -0.158,5.439 -0.302,5.799 -0.547,5.957 -0.676,6.029 -1.065,6.26 -1.454,6.245 -1.612,6.245 -1.77,6.245 -2.144,6.23 -2.519,6.059 -3.022,5.813 -3.425,5.267 -3.555,4.749 -3.626,4.418 -3.641,3.828 -3.641,3.008 l 0,-3.008 -0.849,0 0,6.864 0.849,0 0,-1.223 c 0.058,0.172 0.159,0.446 0.49,0.762 0.273,0.259 0.762,0.605 1.669,0.605 1.28,0 1.871,-0.705 2.086,-1.18 C 0.863,5.281 0.849,4.734 0.849,3.568 L 0.849,0 0,0 Z" />
      </g>
      <g
         transform="translate(1048.1049,-216.32002)"
         id="g226">
        <path
           id="path228"
           style="fill:#ffffff;fill-opacity:1;fill-rule:evenodd;stroke:none"
           d="m 0,0 c -0.014,-0.763 -0.042,-1.44 -0.762,-1.893 -0.226,-0.14 -0.48,-0.239 -0.749,-0.239 -0.508,0 -0.819,0.396 -0.819,0.748 0,0.565 0.565,0.777 0.932,0.918 L 0,0 Z m -1.977,1.75 c 0.057,0.269 0.184,0.861 1.144,0.861 0.777,0 0.805,-0.564 0.833,-0.903 L 0,1.312 C -0.917,1.144 -2.315,0.889 -2.908,0.635 -3.516,0.381 -4.461,-0.297 -4.461,-1.483 c 0,-1.031 0.72,-2.245 2.414,-2.245 1.088,0 1.709,0.466 2.259,0.875 l 0,-0.677 2.132,0 c -0.17,0.254 -0.212,0.367 -0.212,1.158 l 0,4.292 c 0,1.905 -2.188,2.117 -3.091,2.117 -0.862,0 -1.737,-0.112 -2.416,-0.649 C -4.038,2.865 -4.108,2.258 -4.151,1.75 l 2.174,0 z m -6.099,-5.28 2.146,0 0,7.384 -2.146,0 0,-7.384 z m -4.078,7.37 2.174,0 0,-7.37 -2.174,0 0,0.706 c -0.212,-0.24 -0.339,-0.381 -0.734,-0.578 -0.438,-0.227 -0.918,-0.34 -1.398,-0.34 -0.48,0 -1.37,0.071 -1.878,0.776 -0.381,0.537 -0.452,0.975 -0.452,2.175 l 0,4.631 2.189,0 0,-4.574 c 0,-0.326 0,-0.65 0.169,-0.875 0.127,-0.17 0.424,-0.368 0.861,-0.368 0.127,0 0.424,0 0.749,0.183 0.465,0.283 0.48,0.65 0.494,1.045 l 0,4.589 z m -9.683,-5.916 c -0.833,0 -1.482,0.961 -1.482,2.259 0,1.991 1.087,2.301 1.51,2.301 0.833,0 1.469,-0.776 1.469,-2.245 0,-1.609 -0.734,-2.315 -1.497,-2.315 m 1.327,-3.995 2.175,0 0,9.896 -1.977,0 0,-0.621 c -0.438,0.381 -0.96,0.833 -1.963,0.833 -1.75,0 -3.191,-1.383 -3.191,-3.967 0,-2.612 1.568,-3.756 3.05,-3.756 1.017,0 1.638,0.481 1.906,0.678 l 0,-3.063 z m -7.71,9.148 c 0.48,0.409 1.003,0.735 2.132,0.848 l 0,-1.92 -0.72,-0.113 c -1.045,-0.184 -1.355,-0.339 -1.355,-1.271 l 0,-4.151 -2.174,0 0,7.384 2.117,0 0,-0.777 z M -34.274,0 c -0.014,-0.763 -0.042,-1.44 -0.762,-1.893 -0.226,-0.14 -0.481,-0.239 -0.749,-0.239 -0.507,0 -0.819,0.396 -0.819,0.748 0,0.565 0.565,0.777 0.933,0.918 L -34.274,0 Z m -1.976,1.75 c 0.056,0.269 0.183,0.861 1.143,0.861 0.776,0 0.805,-0.564 0.833,-0.903 l 0,-0.396 c -0.918,-0.168 -2.315,-0.423 -2.908,-0.677 -0.608,-0.254 -1.553,-0.932 -1.553,-2.118 0,-1.031 0.719,-2.245 2.414,-2.245 1.087,0 1.708,0.466 2.259,0.875 l 0,-0.677 2.132,0 c -0.17,0.254 -0.212,0.367 -0.212,1.158 l 0,4.292 c 0,1.905 -2.189,2.117 -3.092,2.117 -0.861,0 -1.736,-0.112 -2.414,-0.649 -0.664,-0.523 -0.734,-1.13 -0.777,-1.638 l 2.175,0 z" />
      </g>
    </g>
  </g>
</svg>
