<svg xmlns="http://www.w3.org/2000/svg" viewBox="0 0 385 915"><defs><style>.cls-1{opacity:0.25;}.cls-2{font-size:16px;fill:#fff;font-family:Paco;}.cls-3{letter-spacing:-0.01em;}.cls-4{letter-spacing:2em;}.cls-5{letter-spacing:0.53em;}.cls-6{opacity:0.7;}.cls-7{fill:none;stroke:#fff;stroke-miterlimit:10;}.cls-8{letter-spacing:0.94em;}.cls-9{letter-spacing:0.94em;}.cls-10{opacity:0.5;}</style></defs><g id="INTERFACE"><g id="Right_Column" data-name="Right Column"><g id="Static"><text class="cls-2" transform="translate(3.37 77)">[ x ] exit_</text><text class="cls-2" transform="translate(3.37 17.49)">[ curent population<tspan class="cls-3" x="140.13" y="0">	</tspan><tspan class="cls-4" x="144" y="0" xml:space="preserve">						</tspan><tspan class="cls-5" x="360" y="0"> </tspan><tspan x="372.5" y="0">]</tspan></text><text class="cls-2" transform="translate(3.37 136.51)"><tspan xml:space="preserve">[       ] mic_</tspan></text><text class="cls-2" transform="translate(3.37 196.02)"><tspan xml:space="preserve">[       ] cam_</tspan></text><text class="cls-2" transform="translate(3.37 255.53)">[ h ] help_</text></g><g id="Dynamic"><text class="cls-2" transform="translate(326.66 17.49)">25</text><text class="cls-2" transform="translate(12.24 196.02)">off</text><text class="cls-2" transform="translate(12.24 136.51)">off</text></g></g><g id="Frames"><polyline class="cls-7" points="381.63 689.76 381.63 712.51 358.88 712.51"/><polyline class="cls-7" points="31.19 712.51 8.44 712.51 8.44 689.76"/><polyline class="cls-7" points="8.44 362.08 8.44 339.33 31.19 339.33"/><polyline class="cls-7" points="358.88 339.33 381.63 339.33 381.63 362.08"/></g><g id="Chat"><g id="Base-3" data-name="Base"><text class="cls-2" transform="translate(3.38 907.58)">[<tspan class="cls-8" x="5.76" y="0" xml:space="preserve">                </tspan><tspan x="310.85" y="0">send_</tspan><tspan class="cls-9" x="353.42" y="0"> </tspan><tspan x="372.49" y="0">]</tspan></text></g><g id="Sample_Text" data-name="Sample Text"><g class="cls-10"><text class="cls-2" transform="translate(11.86 907.58)">join the chat here</text></g><g class="cls-10"><text class="cls-2" transform="translate(11.86 784.94)">chat messsages from other users<tspan x="0" y="19.2">chat message here</tspan><tspan x="0" y="38.4">lorem ipsum dolor sit amet </tspan><tspan x="0" y="57.6">consectetur adipiscing elit, nascetur suspendisse </tspan><tspan x="0" y="76.8">praesent auctor</tspan><tspan x="0" y="96">id mauris pretium accumsan. </tspan></text></g></g></g></g></svg>