<svg xmlns="http://www.w3.org/2000/svg" viewBox="0 0 200 25"><defs><style>.cls-1{opacity:0.25;}.cls-2{fill:#fff;}.cls-3{opacity:0.7;}</style></defs><g id="INTERFACE"><g id="Logos"><path class="cls-2" d="M28.11,12.62a3.31,3.31,0,0,0,.24,1.3,2.68,2.68,0,0,0,.67.94,3,3,0,0,0,1,.6,3.7,3.7,0,0,0,2.4,0,2.9,2.9,0,0,0,1-.6,2.68,2.68,0,0,0,.67-.94,3.31,3.31,0,0,0,.25-1.3,3.22,3.22,0,0,0-.25-1.29,2.76,2.76,0,0,0-.67-1,2.9,2.9,0,0,0-1-.6,3.53,3.53,0,0,0-2.4,0,3,3,0,0,0-1,.6,2.76,2.76,0,0,0-.67,1,3.23,3.23,0,0,0-.24,1.29m4.08,5.28a4.86,4.86,0,0,1-1.11-.13A4.32,4.32,0,0,1,30,17.34a4.72,4.72,0,0,1-1-.74,3.8,3.8,0,0,1-.8-1.08,3.17,3.17,0,0,1,.16.32,3.25,3.25,0,0,1,.11.37,1.54,1.54,0,0,1,0,.43v4H25V7.42h3.48v.94a1.42,1.42,0,0,1,0,.42,3.07,3.07,0,0,1-.11.36,3.17,3.17,0,0,1-.16.32A3.84,3.84,0,0,1,29,8.37a4.61,4.61,0,0,1,2.13-1.16,4.86,4.86,0,0,1,1.11-.13,5.77,5.77,0,0,1,2.14.38A4.76,4.76,0,0,1,36,8.54a4.89,4.89,0,0,1,1.1,1.71,6.06,6.06,0,0,1,.4,2.26,5.88,5.88,0,0,1-.41,2.24A5,5,0,0,1,36,16.44a5.17,5.17,0,0,1-1.69,1.09,5.78,5.78,0,0,1-2.09.37"/><path class="cls-2" d="M48.12,12.61a3.13,3.13,0,0,0-.25-1.29,2.82,2.82,0,0,0-.67-1,2.64,2.64,0,0,0-1-.6A3.35,3.35,0,0,0,45,9.56a3.44,3.44,0,0,0-1.2.21,2.68,2.68,0,0,0-1,.6,2.85,2.85,0,0,0-.68,1,3.3,3.3,0,0,0-.24,1.29,3.23,3.23,0,0,0,.24,1.29,2.75,2.75,0,0,0,.68.95,2.94,2.94,0,0,0,1,.59,3.68,3.68,0,0,0,1.2.2,3.58,3.58,0,0,0,1.19-.2,2.9,2.9,0,0,0,1-.59,2.72,2.72,0,0,0,.67-.95,3.06,3.06,0,0,0,.25-1.29m-.37,5v-1a2.14,2.14,0,0,1,0-.45c0-.14.07-.26.11-.37a3.1,3.1,0,0,1,.17-.32,4.27,4.27,0,0,1-.82,1.08,4.44,4.44,0,0,1-1,.74,4.32,4.32,0,0,1-1.11.43,4.71,4.71,0,0,1-1.1.13A5.74,5.74,0,0,1,42,17.53a5.17,5.17,0,0,1-1.69-1.09,5,5,0,0,1-1.13-1.69,5.7,5.7,0,0,1-.41-2.24,6.06,6.06,0,0,1,.4-2.26,4.89,4.89,0,0,1,1.1-1.71A4.76,4.76,0,0,1,41.9,7.46,5.73,5.73,0,0,1,44,7.08a4.71,4.71,0,0,1,2.21.55,4.44,4.44,0,0,1,1,.74,4.33,4.33,0,0,1,.82,1.09,3.1,3.1,0,0,1-.17-.32c0-.11-.07-.22-.11-.34a1.62,1.62,0,0,1,0-.4v-1h3.49v10.2Z"/><path class="cls-2" d="M65.11,13.46a5,5,0,0,1-.74,1.93A5.1,5.1,0,0,1,63,16.77a6,6,0,0,1-1.85.85A8,8,0,0,1,59,17.9a8.38,8.38,0,0,1-2.37-.33,5.75,5.75,0,0,1-2-1,5,5,0,0,1-1.34-1.69,5.32,5.32,0,0,1-.5-2.36,5.25,5.25,0,0,1,.5-2.35,4.86,4.86,0,0,1,1.34-1.69,5.94,5.94,0,0,1,2-1A8,8,0,0,1,59,7.1a7.53,7.53,0,0,1,2.14.3A6.23,6.23,0,0,1,63,8.29a5.57,5.57,0,0,1,1.36,1.42,5.07,5.07,0,0,1,.75,1.89H61.93a3,3,0,0,0-1-1.54A3.08,3.08,0,0,0,59,9.5a3.38,3.38,0,0,0-1.21.21,2.58,2.58,0,0,0-1,.59,2.81,2.81,0,0,0-.65.95A3.31,3.31,0,0,0,56,12.5a3.2,3.2,0,0,0,.23,1.25,2.94,2.94,0,0,0,.65.93,2.44,2.44,0,0,0,1,.58,3.61,3.61,0,0,0,1.21.2A3.28,3.28,0,0,0,60.89,15a2.55,2.55,0,0,0,1-1.49Z"/><path class="cls-2" d="M75.46,12.5a3.13,3.13,0,0,0-.24-1.25,2.88,2.88,0,0,0-.66-1,2.52,2.52,0,0,0-1-.6,3.59,3.59,0,0,0-2.42,0,2.52,2.52,0,0,0-1,.6,2.76,2.76,0,0,0-.67,1,3.3,3.3,0,0,0,0,2.52,2.74,2.74,0,0,0,.67.93,2.63,2.63,0,0,0,1,.59,3.59,3.59,0,0,0,2.42,0,2.63,2.63,0,0,0,1-.59,2.85,2.85,0,0,0,.66-.93,3.16,3.16,0,0,0,.24-1.27m-9.31,0a5.12,5.12,0,0,1,.51-2.35A4.94,4.94,0,0,1,68,8.46a6.38,6.38,0,0,1,2-1,8.57,8.57,0,0,1,4.71,0,6.38,6.38,0,0,1,2,1,4.82,4.82,0,0,1,1.37,1.69,5.12,5.12,0,0,1,.51,2.35,5.19,5.19,0,0,1-.51,2.36,4.88,4.88,0,0,1-1.37,1.68,6.18,6.18,0,0,1-2,1,8.57,8.57,0,0,1-4.71,0,6.18,6.18,0,0,1-2-1,5,5,0,0,1-1.37-1.68,5.19,5.19,0,0,1-.51-2.36"/><path class="cls-2" d="M87.43,8.46a2.2,2.2,0,0,1-.06.53,3.45,3.45,0,0,1-.14.45l-.18.43A4.92,4.92,0,0,1,88.8,7.75,4,4,0,0,1,91,7.1a4.94,4.94,0,0,1,1,.08,4.61,4.61,0,0,1,.86.24v3.33a3.56,3.56,0,0,0-2.35-.8,4.79,4.79,0,0,0-1.22.16,2.75,2.75,0,0,0-1,.5,2.41,2.41,0,0,0-.64.84,2.72,2.72,0,0,0-.24,1.19v5H84V7.42h3.48Z"/><path class="cls-2" d="M102.71,12.61a3.3,3.3,0,0,0-.24-1.29,2.84,2.84,0,0,0-1.66-1.55,3.53,3.53,0,0,0-2.4,0,2.68,2.68,0,0,0-1,.6,2.82,2.82,0,0,0-.67,1,3.3,3.3,0,0,0-.25,1.29,3.22,3.22,0,0,0,.25,1.29,2.72,2.72,0,0,0,.67.95,2.94,2.94,0,0,0,1,.59,3.7,3.7,0,0,0,2.4,0,3.1,3.1,0,0,0,1-.59,2.72,2.72,0,0,0,.67-.95,3.23,3.23,0,0,0,.24-1.29m-.36,5v-1a1.64,1.64,0,0,1,.05-.45,2.74,2.74,0,0,1,.11-.37,3.17,3.17,0,0,1,.16-.32,4.49,4.49,0,0,1-.81,1.08,4.67,4.67,0,0,1-1,.74,4.32,4.32,0,0,1-1.11.43,4.8,4.8,0,0,1-1.11.13,5.78,5.78,0,0,1-2.09-.37,5.17,5.17,0,0,1-1.69-1.09,5,5,0,0,1-1.13-1.69,5.88,5.88,0,0,1-.41-2.24,6.06,6.06,0,0,1,.4-2.26,4.89,4.89,0,0,1,1.1-1.71,4.76,4.76,0,0,1,1.68-1.08,5.77,5.77,0,0,1,2.14-.38,4.8,4.8,0,0,1,1.11.13,4.52,4.52,0,0,1,2.12,1.16,4.55,4.55,0,0,1,.81,1.09,3.17,3.17,0,0,1-.16-.32,3.38,3.38,0,0,1-.11-.34,1.25,1.25,0,0,1-.05-.4v-1h3.48v10.2Z"/><path class="cls-2" d="M111,12.63a3.11,3.11,0,0,0,.25,1.3,2.6,2.6,0,0,0,.67,1,2.92,2.92,0,0,0,1,.6,3.58,3.58,0,0,0,1.19.2,3.68,3.68,0,0,0,1.2-.2,3,3,0,0,0,1-.6,2.6,2.6,0,0,0,.67-1,3.11,3.11,0,0,0,.25-1.3,3.14,3.14,0,0,0-.25-1.3,2.82,2.82,0,0,0-.67-1,3,3,0,0,0-1-.6,3.44,3.44,0,0,0-1.2-.21,3.35,3.35,0,0,0-1.19.21,2.92,2.92,0,0,0-1,.6,2.82,2.82,0,0,0-.67,1,3.14,3.14,0,0,0-.25,1.3m4.08-5.49a5.74,5.74,0,0,1,2.09.37,5.31,5.31,0,0,1,1.69,1.08,5.11,5.11,0,0,1,1.13,1.7,5.83,5.83,0,0,1,.41,2.23,6,6,0,0,1-.4,2.26,4.75,4.75,0,0,1-2.78,2.79,5.94,5.94,0,0,1-2.14.37,4.72,4.72,0,0,1-3.23-1.28,4,4,0,0,1-.81-1.08,2.5,2.5,0,0,1,.17.33c0,.11.07.22.11.35a1.86,1.86,0,0,1,0,.42v.94h-3.49V4.38h3.49v4a2,2,0,0,1,0,.43c0,.14-.07.26-.11.37a3.1,3.1,0,0,1-.17.32,4,4,0,0,1,.81-1.08,5.09,5.09,0,0,1,1-.74A4.32,4.32,0,0,1,114,7.27a4.71,4.71,0,0,1,1.1-.13"/><path class="cls-2" d="M131,12.61a3.3,3.3,0,0,0-.24-1.29,2.85,2.85,0,0,0-.68-1,2.68,2.68,0,0,0-1-.6,3.4,3.4,0,0,0-1.2-.21,3.44,3.44,0,0,0-1.2.21,2.76,2.76,0,0,0-1,.6,2.82,2.82,0,0,0-.67,1,3.13,3.13,0,0,0-.25,1.29A3.06,3.06,0,0,0,125,13.9a2.72,2.72,0,0,0,.67.95,3,3,0,0,0,1,.59,3.68,3.68,0,0,0,1.2.2,3.64,3.64,0,0,0,1.2-.2,3,3,0,0,0,1-.59,2.75,2.75,0,0,0,.68-.95,3.23,3.23,0,0,0,.24-1.29m-.36,5v-1a1.64,1.64,0,0,1,.05-.45,2.74,2.74,0,0,1,.11-.37,3.17,3.17,0,0,1,.16-.32,4.49,4.49,0,0,1-.81,1.08,4.67,4.67,0,0,1-1,.74,4.39,4.39,0,0,1-1.12.43,4.71,4.71,0,0,1-1.1.13,5.78,5.78,0,0,1-2.09-.37,5.17,5.17,0,0,1-1.69-1.09A5,5,0,0,1,122,14.75a5.88,5.88,0,0,1-.41-2.24,6.06,6.06,0,0,1,.4-2.26,4.89,4.89,0,0,1,1.1-1.71,4.76,4.76,0,0,1,1.68-1.08,5.77,5.77,0,0,1,2.14-.38,4.58,4.58,0,0,1,3.23,1.29A4.55,4.55,0,0,1,131,9.46a3.17,3.17,0,0,1-.16-.32,3.38,3.38,0,0,1-.11-.34,1.25,1.25,0,0,1-.05-.4v-1h3.48v10.2Z"/><path class="cls-2" d="M139.63,8.38a1.59,1.59,0,0,1-.07.5,2.07,2.07,0,0,1-.14.42,2.54,2.54,0,0,1-.18.41,4.38,4.38,0,0,1,1.86-2,5.2,5.2,0,0,1,2.48-.61,6,6,0,0,1,1.6.21,3.93,3.93,0,0,1,1.36.67,3.18,3.18,0,0,1,.94,1.14,3.6,3.6,0,0,1,.34,1.63v6.83h-3.48V12.11a2.4,2.4,0,0,0-.57-1.72,2.28,2.28,0,0,0-1.72-.6,2.44,2.44,0,0,0-1.8.61,2.21,2.21,0,0,0-.62,1.67v5.55h-3.49V7.42h3.49Z"/><path class="cls-2" d="M153.32,8.38a2,2,0,0,1-.06.5,3,3,0,0,1-.14.42c-.06.15-.12.28-.18.41a4.41,4.41,0,0,1,1.85-2,5.27,5.27,0,0,1,2.49-.61,6,6,0,0,1,1.6.21,4,4,0,0,1,1.36.67,3.16,3.16,0,0,1,.93,1.14,3.59,3.59,0,0,1,.35,1.63v6.83H158V12.11a2.4,2.4,0,0,0-.57-1.72,2.25,2.25,0,0,0-1.71-.6,2.48,2.48,0,0,0-1.81.61,2.25,2.25,0,0,0-.62,1.67v5.55h-3.48V7.42h3.48Z"/><path class="cls-2" d="M171.87,11.11a2.12,2.12,0,0,0-.9-1.25,3.08,3.08,0,0,0-1.79-.48,3.34,3.34,0,0,0-1.83.46,2.21,2.21,0,0,0-1,1.27Zm-5.65,2.14a2.46,2.46,0,0,0,1,1.7,3.39,3.39,0,0,0,2,.59,3.7,3.7,0,0,0,1.69-.36A2.25,2.25,0,0,0,172,14.11h3a4.45,4.45,0,0,1-.75,1.6,4.93,4.93,0,0,1-1.3,1.19,5.94,5.94,0,0,1-1.72.75,7.92,7.92,0,0,1-2,.25,8.31,8.31,0,0,1-2.36-.33,5.49,5.49,0,0,1-1.93-1,5,5,0,0,1-1.32-1.69,5.25,5.25,0,0,1-.49-2.35,5.28,5.28,0,0,1,.5-2.35,4.94,4.94,0,0,1,1.35-1.68,6,6,0,0,1,2-1,7.92,7.92,0,0,1,2.36-.34,7,7,0,0,1,2.12.33,5.66,5.66,0,0,1,1.85,1,5.17,5.17,0,0,1,1.3,1.7,5.34,5.34,0,0,1,.5,2.37v.35a1.59,1.59,0,0,1,0,.36Z"/></g></g></svg>