<?xml version="1.0" encoding="UTF-8" standalone="no"?>
<!-- Created with Inkscape (http://www.inkscape.org/) -->

<svg
   xmlns:dc="http://purl.org/dc/elements/1.1/"
   xmlns:cc="http://creativecommons.org/ns#"
   xmlns:rdf="http://www.w3.org/1999/02/22-rdf-syntax-ns#"
   xmlns:svg="http://www.w3.org/2000/svg"
   xmlns="http://www.w3.org/2000/svg"
   xmlns:sodipodi="http://sodipodi.sourceforge.net/DTD/sodipodi-0.dtd"
   xmlns:inkscape="http://www.inkscape.org/namespaces/inkscape"
   width="14.21377mm"
   height="14.214122mm"
   viewBox="0 0 50.363752 50.364998"
   id="svg7185"
   version="1.1"
   inkscape:version="0.91 r13725"
   sodipodi:docname="people.svg">
  <defs
     id="defs7187" />
  <sodipodi:namedview
     id="base"
     pagecolor="#ffffff"
     bordercolor="#666666"
     borderopacity="1.0"
     inkscape:pageopacity="0.0"
     inkscape:pageshadow="2"
     inkscape:zoom="0.35"
     inkscape:cx="403.40399"
     inkscape:cy="-318.73824"
     inkscape:document-units="px"
     inkscape:current-layer="layer1"
     showgrid="false"
     fit-margin-top="0"
     fit-margin-left="0"
     fit-margin-right="0"
     fit-margin-bottom="0"
     inkscape:window-width="683"
     inkscape:window-height="716"
     inkscape:window-x="683"
     inkscape:window-y="24"
     inkscape:window-maximized="0" />
  <metadata
     id="metadata7190">
    <rdf:RDF>
      <cc:Work
         rdf:about="">
        <dc:format>image/svg+xml</dc:format>
        <dc:type
           rdf:resource="http://purl.org/dc/dcmitype/StillImage" />
        <dc:title></dc:title>
      </cc:Work>
    </rdf:RDF>
  </metadata>
  <g
     inkscape:label="Layer 1"
     inkscape:groupmode="layer"
     id="layer1"
     transform="translate(-3.921325,-295.2193)">
    <g
       id="g6511"
       transform="matrix(1.25,0,0,-1.25,-1624.6468,1225.4518)">
      <g
         transform="translate(1343.1455,724.04)"
         id="g138">
        <path
           inkscape:connector-curvature="0"
           id="path140"
           style="fill:#1d1d1b;fill-opacity:1;fill-rule:nonzero;stroke:none"
           d="m 0,0 c 0,-11.126 -9.02,-20.146 -20.146,-20.146 -11.125,0 -20.145,9.02 -20.145,20.146 0,11.126 9.02,20.146 20.145,20.146 C -9.02,20.146 0,11.126 0,0" />
      </g>
      <g
         transform="translate(1333.9248,724.9224)"
         id="g142">
        <path
           inkscape:connector-curvature="0"
           id="path144"
           style="fill:#ffffff;fill-opacity:1;fill-rule:nonzero;stroke:none"
           d="m 0,0 -3.74,0 c 2.88,-1.12 4.93,-3.93 4.93,-7.21 l 0,-0.7 2.85,0 0,3.87 C 4.04,-1.81 2.23,0 0,0" />
      </g>
      <g
         transform="translate(1328.4951,727.5024)"
         id="g146">
        <path
           inkscape:connector-curvature="0"
           id="path148"
           style="fill:#ffffff;fill-opacity:1;fill-rule:nonzero;stroke:none"
           d="m 0,0 c 0.66,-0.71 1.59,-1.15 2.63,-1.15 1.99,0 3.59,1.61 3.59,3.59 0,1.98 -1.6,3.59 -3.59,3.59 C 2.2,6.03 1.779,5.95 1.399,5.81 1.49,5.35 1.54,4.87 1.54,4.38 1.54,2.72 0.96,1.2 0,0" />
      </g>
      <g
         transform="translate(1327.375,724.0425)"
         id="g150">
        <path
           inkscape:connector-curvature="0"
           id="path152"
           style="fill:#ffffff;fill-opacity:1;fill-rule:nonzero;stroke:none"
           d="m 0,0 -1.57,0 -5.61,0 -1.56,0 c -3.49,0 -6.321,-2.83 -6.321,-6.33 l 0,-0.7 0,-5.35 21.381,0 0,5.35 0,0.7 C 6.32,-2.83 3.49,0 0,0" />
      </g>
      <g
         transform="translate(1323.0049,726.2725)"
         id="g154">
        <path
           inkscape:connector-curvature="0"
           id="path156"
           style="fill:#ffffff;fill-opacity:1;fill-rule:nonzero;stroke:none"
           d="M 0,0 C 1.97,0 3.71,1.02 4.7,2.56 5.28,3.44 5.61,4.48 5.61,5.61 5.61,5.81 5.6,6.02 5.58,6.21 5.28,9.03 2.9,11.22 0,11.22 -2.9,11.22 -5.28,9.03 -5.58,6.21 -5.6,6.02 -5.61,5.81 -5.61,5.61 -5.61,4.48 -5.28,3.44 -4.7,2.56 -3.71,1.02 -1.97,0 0,0" />
      </g>
      <g
         transform="translate(1315.8252,724.9224)"
         id="g158">
        <path
           inkscape:connector-curvature="0"
           id="path160"
           style="fill:#ffffff;fill-opacity:1;fill-rule:nonzero;stroke:none"
           d="m 0,0 -3.74,0 c -2.231,0 -4.05,-1.81 -4.05,-4.04 l 0,-3.87 2.859,0 0,0.7 c 0,3.28 2.051,6.09 4.931,7.21" />
      </g>
      <g
         transform="translate(1314.8848,726.3525)"
         id="g162">
        <path
           inkscape:connector-curvature="0"
           id="path164"
           style="fill:#ffffff;fill-opacity:1;fill-rule:nonzero;stroke:none"
           d="M 0,0 C 1.04,0 1.97,0.44 2.63,1.15 1.67,2.35 1.09,3.87 1.09,5.53 1.09,6.02 1.14,6.5 1.23,6.96 0.851,7.1 0.43,7.18 0,7.18 -1.99,7.18 -3.59,5.57 -3.59,3.59 -3.59,1.61 -1.99,0 0,0" />
      </g>
    </g>
  </g>
</svg>
