<?xml version="1.0" encoding="UTF-8" standalone="no"?>
<!-- Created with Inkscape (http://www.inkscape.org/) -->

<svg
   xmlns:dc="http://purl.org/dc/elements/1.1/"
   xmlns:cc="http://creativecommons.org/ns#"
   xmlns:rdf="http://www.w3.org/1999/02/22-rdf-syntax-ns#"
   xmlns:svg="http://www.w3.org/2000/svg"
   xmlns="http://www.w3.org/2000/svg"
   xmlns:sodipodi="http://sodipodi.sourceforge.net/DTD/sodipodi-0.dtd"
   xmlns:inkscape="http://www.inkscape.org/namespaces/inkscape"
   width="63.586079mm"
   height="14.393686mm"
   viewBox="0 0 225.305 51.00125"
   id="svg7185"
   version="1.1"
   inkscape:version="0.91 r13725"
   sodipodi:docname="preferences.svg">
  <defs
     id="defs7187">
    <clipPath
       clipPathUnits="userSpaceOnUse"
       id="clipPath566">
      <path
         d="M 0,842 1366,842 1366,0 0,0 0,842 Z"
         id="path568"
         inkscape:connector-curvature="0" />
    </clipPath>
    <clipPath
       clipPathUnits="userSpaceOnUse"
       id="clipPath618">
      <path
         d="M 0,842 1366,842 1366,0 0,0 0,842 Z"
         id="path620"
         inkscape:connector-curvature="0" />
    </clipPath>
  </defs>
  <sodipodi:namedview
     id="base"
     pagecolor="#ffffff"
     bordercolor="#666666"
     borderopacity="1.0"
     inkscape:pageopacity="0.0"
     inkscape:pageshadow="2"
     inkscape:zoom="0.32"
     inkscape:cx="190.35556"
     inkscape:cy="-138.90529"
     inkscape:document-units="px"
     inkscape:current-layer="layer1"
     showgrid="false"
     fit-margin-top="0"
     fit-margin-left="0"
     fit-margin-right="0"
     fit-margin-bottom="0"
     inkscape:window-width="683"
     inkscape:window-height="716"
     inkscape:window-x="683"
     inkscape:window-y="24"
     inkscape:window-maximized="0" />
  <metadata
     id="metadata7190">
    <rdf:RDF>
      <cc:Work
         rdf:about="">
        <dc:format>image/svg+xml</dc:format>
        <dc:type
           rdf:resource="http://purl.org/dc/dcmitype/StillImage" />
        <dc:title></dc:title>
      </cc:Work>
    </rdf:RDF>
  </metadata>
  <g
     inkscape:label="Layer 1"
     inkscape:groupmode="layer"
     id="layer1"
     transform="translate(-663.62739,-1137.5895)">
    <g
       transform="translate(657.70846,731.66669)"
       id="g7160">
      <g
         transform="matrix(1.25,0,0,-1.25,205.72393,405.92278)"
         id="g542">
        <path
           inkscape:connector-curvature="0"
           id="path544"
           style="fill:#fab900;fill-opacity:1;fill-rule:nonzero;stroke:none"
           d="m 0,0 -19.339,0 -140.505,0 0,-40.801 140.505,0 19.339,0 c 11.267,0 20.4,9.134 20.4,20.401 C 20.4,-9.134 11.267,0 0,0" />
      </g>
      <g
         transform="matrix(1.25,0,0,-1.25,209.18043,435.17141)"
         id="g710">
        <path
           inkscape:connector-curvature="0"
           id="path712"
           style="fill:#ffffff;fill-opacity:1;fill-rule:nonzero;stroke:none"
           d="m 0,0 c -0.508,-0.507 -1.152,-0.898 -1.9,-1.097 l -0.007,0 C -2.654,-1.296 -3.409,-1.289 -4.102,-1.09 -4.822,-0.905 -5.48,-0.528 -6.008,0 -6.516,0.508 -6.9,1.152 -7.105,1.9 l 0,0.007 c -0.097,0.364 -0.145,0.734 -0.145,1.097 0,0.377 0.048,0.748 0.151,1.098 0.185,0.72 0.57,1.371 1.098,1.899 0.501,0.515 1.152,0.899 1.899,1.105 0.364,0.096 0.734,0.144 1.098,0.144 0.377,0 0.748,-0.048 1.104,-0.151 C -1.18,6.907 -0.528,6.53 0,6.001 0.507,5.494 0.898,4.849 1.097,4.102 1.2,3.731 1.241,3.361 1.241,2.998 1.241,2.627 1.193,2.257 1.09,1.907 0.905,1.187 0.528,0.528 0,0 m 5.191,3.004 c 0,0.697 -0.087,1.41 -0.278,2.115 l 0,0.008 2.057,0.549 C 7.343,5.775 7.571,6.169 7.448,6.535 6.969,7.956 6.225,9.221 5.282,10.288 5.027,10.577 4.575,10.575 4.302,10.302 L 3.26,9.26 C 3.011,9.011 2.606,8.979 2.338,9.208 1.562,9.875 0.667,10.392 -0.296,10.73 c -0.331,0.117 -0.505,0.483 -0.415,0.823 l 0.378,1.419 c 0.1,0.372 -0.126,0.765 -0.504,0.841 -0.703,0.14 -1.426,0.214 -2.159,0.214 -0.719,0 -1.444,-0.07 -2.171,-0.214 -0.379,-0.076 -0.607,-0.471 -0.506,-0.845 l 0.389,-1.443 c 0.093,-0.341 -0.107,-0.682 -0.441,-0.798 -0.986,-0.345 -1.87,-0.866 -2.619,-1.518 -0.264,-0.23 -0.665,-0.2 -0.912,0.047 L -10.3,10.3 c -0.273,0.273 -0.727,0.275 -0.982,-0.015 -0.962,-1.095 -1.697,-2.371 -2.16,-3.754 -0.122,-0.365 0.105,-0.756 0.476,-0.856 l 1.424,-0.386 c 0.352,-0.095 0.552,-0.448 0.486,-0.807 -0.089,-0.48 -0.134,-0.97 -0.134,-1.469 0,-0.507 0.044,-1.018 0.141,-1.531 0.065,-0.344 -0.157,-0.679 -0.496,-0.769 l -2.107,-0.562 0,-0.009 c 0.452,-1.682 1.271,-3.161 2.342,-4.386 0.265,-0.303 0.726,-0.332 1.01,-0.047 l 1.033,1.033 c 0.249,0.249 0.653,0.281 0.92,0.053 0.777,-0.665 1.673,-1.184 2.64,-1.519 0.332,-0.116 0.507,-0.483 0.415,-0.823 l -0.383,-1.419 c -0.1,-0.371 0.124,-0.764 0.5,-0.842 1.614,-0.332 3.326,-0.301 5.024,0.156 l 0.009,0 -0.574,2.126 c -0.092,0.343 0.107,0.685 0.442,0.803 0.986,0.349 1.869,0.87 2.619,1.523 0.263,0.229 0.665,0.2 0.911,-0.048 L 4.3,-4.292 c 0.273,-0.272 0.727,-0.273 0.982,0.016 0.961,1.093 1.696,2.368 2.159,3.745 0.123,0.364 -0.104,0.756 -0.476,0.857 L 5.539,0.71 C 5.184,0.806 4.985,1.161 5.053,1.522 5.145,2.008 5.191,2.504 5.191,3.004" />
      </g>
      <text
         id="text606-2-7"
         style="font-variant:normal;font-weight:normal;font-stretch:normal;font-size:17.5px;font-family:'Graphik Regular';-inkscape-font-specification:Graphik-Regular;writing-mode:lr-tb;fill:#000000;fill-opacity:1;fill-rule:nonzero;stroke:none"
         x="19.706179"
         y="191.06555">
        <tspan
           y="191.06555"
           x="19.706179"
           id="tspan608-2-3"
           sodipodi:role="line" />
        <tspan
           id="tspan610-8-6"
           sodipodi:role="line"
           y="436.13544"
           x="19.706179 30.678667 36.996178 46.93618 52.553673 62.49369 68.81118 78.751167 89.216164 99.19117 109.2187">preferences</tspan>
        <tspan
           id="tspan612-9-1"
           sodipodi:role="line"
           x="44.25869 99.313667 159.60121" />
      </text>
    </g>
  </g>
</svg>
