<?xml version="1.0" encoding="UTF-8" standalone="no"?>
<!-- Created with Inkscape (http://www.inkscape.org/) -->

<svg
   xmlns:dc="http://purl.org/dc/elements/1.1/"
   xmlns:cc="http://creativecommons.org/ns#"
   xmlns:rdf="http://www.w3.org/1999/02/22-rdf-syntax-ns#"
   xmlns:svg="http://www.w3.org/2000/svg"
   xmlns="http://www.w3.org/2000/svg"
   xmlns:sodipodi="http://sodipodi.sourceforge.net/DTD/sodipodi-0.dtd"
   xmlns:inkscape="http://www.inkscape.org/namespaces/inkscape"
   width="63.586079mm"
   height="14.393686mm"
   viewBox="0 0 225.305 51.00125"
   id="svg7185"
   version="1.1"
   inkscape:version="0.91 r13725"
   sodipodi:docname="setAvatar.svg">
  <defs
     id="defs7187" />
  <sodipodi:namedview
     id="base"
     pagecolor="#ffffff"
     bordercolor="#666666"
     borderopacity="1.0"
     inkscape:pageopacity="0.0"
     inkscape:pageshadow="2"
     inkscape:zoom="0.35"
     inkscape:cx="-195.90387"
     inkscape:cy="309.08775"
     inkscape:document-units="px"
     inkscape:current-layer="layer1"
     showgrid="false"
     fit-margin-top="0"
     fit-margin-left="0"
     fit-margin-right="0"
     fit-margin-bottom="0"
     inkscape:window-width="683"
     inkscape:window-height="716"
     inkscape:window-x="683"
     inkscape:window-y="24"
     inkscape:window-maximized="0" />
  <metadata
     id="metadata7190">
    <rdf:RDF>
      <cc:Work
         rdf:about="">
        <dc:format>image/svg+xml</dc:format>
        <dc:type
           rdf:resource="http://purl.org/dc/dcmitype/StillImage" />
        <dc:title></dc:title>
      </cc:Work>
    </rdf:RDF>
  </metadata>
  <g
     inkscape:label="Layer 1"
     inkscape:groupmode="layer"
     id="layer1"
     transform="translate(-603.22918,-922.40904)">
    <g
       transform="translate(597.31025,823.0165)"
       id="g7016">
      <g
         id="g6865">
        <g
           id="g538"
           transform="matrix(1.25,0,0,-1.25,205.72393,99.392535)">
          <path
             d="m 0,0 -19.339,0 -140.505,0 0,-40.801 140.505,0 19.339,0 c 11.267,0 20.4,9.134 20.4,20.401 C 20.4,-9.134 11.267,0 0,0"
             style="fill:#fab900;fill-opacity:1;fill-rule:nonzero;stroke:none"
             id="path540"
             inkscape:connector-curvature="0" />
        </g>
        <text
           y="190.98019"
           x="19.750414"
           style="font-variant:normal;font-weight:normal;font-stretch:normal;font-size:17.5px;font-family:'Graphik Regular';-inkscape-font-specification:Graphik-Regular;writing-mode:lr-tb;fill:#000000;fill-opacity:1;fill-rule:nonzero;stroke:none"
           id="text606">
          <tspan
             sodipodi:role="line"
             id="tspan610"
             x="19.750414"
             y="190.98019" />
          <tspan
             x="19.750414 28.150438 38.090439 44.302933 48.940414 59.405441 68.855423 84.780411 94.720413 99.357925 111.36293 116.00042 125.18792 134.44543 143.89545 150.19543 159.64545"
             y="129.5202"
             sodipodi:role="line"
             id="tspan612">set name &amp; avatar</tspan>
        </text>
      </g>
      <g
         transform="matrix(1.25,0,0,-1.25,210.02205,124.30341)"
         id="g714">
        <path
           inkscape:connector-curvature="0"
           id="path716"
           style="fill:#ffffff;fill-opacity:1;fill-rule:nonzero;stroke:none"
           d="M 0,0 -1.322,0 -6.046,0 -7.36,0 c -2.939,0 -5.323,-2.383 -5.323,-5.331 l 0,-0.589 0,-4.505 18.005,0 0,4.505 0,0.589 C 5.322,-2.383 2.939,0 0,0" />
      </g>
      <g
         transform="matrix(1.25,0,0,-1.25,205.42243,121.95541)"
         id="g718">
        <path
           inkscape:connector-curvature="0"
           id="path720"
           style="fill:#ffffff;fill-opacity:1;fill-rule:nonzero;stroke:none"
           d="m 0,0 c 1.659,0 3.124,0.859 3.958,2.156 0.488,0.74 0.766,1.616 0.766,2.568 0,0.169 -0.008,0.345 -0.025,0.505 C 4.446,7.604 2.442,9.448 0,9.448 -2.442,9.448 -4.447,7.604 -4.699,5.229 -4.716,5.069 -4.725,4.893 -4.725,4.724 -4.725,3.772 -4.447,2.896 -3.958,2.156 -3.125,0.859 -1.659,0 0,0" />
      </g>
    </g>
  </g>
</svg>
