<?xml version="1.0" encoding="UTF-8" standalone="no"?>
<!-- Created with Inkscape (http://www.inkscape.org/) -->

<svg
   xmlns:dc="http://purl.org/dc/elements/1.1/"
   xmlns:cc="http://creativecommons.org/ns#"
   xmlns:rdf="http://www.w3.org/1999/02/22-rdf-syntax-ns#"
   xmlns:svg="http://www.w3.org/2000/svg"
   xmlns="http://www.w3.org/2000/svg"
   xmlns:sodipodi="http://sodipodi.sourceforge.net/DTD/sodipodi-0.dtd"
   xmlns:inkscape="http://www.inkscape.org/namespaces/inkscape"
   width="14.214123mm"
   height="14.214123mm"
   viewBox="0 0 50.365002 50.365001"
   id="svg7185"
   version="1.1"
   inkscape:version="0.91 r13725"
   sodipodi:docname="shareScreen.svg">
  <defs
     id="defs7187" />
  <sodipodi:namedview
     id="base"
     pagecolor="#ffffff"
     bordercolor="#666666"
     borderopacity="1.0"
     inkscape:pageopacity="0.0"
     inkscape:pageshadow="2"
     inkscape:zoom="0.35"
     inkscape:cx="215.36498"
     inkscape:cy="-343.92074"
     inkscape:document-units="px"
     inkscape:current-layer="layer1"
     showgrid="false"
     fit-margin-top="0"
     fit-margin-left="0"
     fit-margin-right="0"
     fit-margin-bottom="0"
     inkscape:window-width="683"
     inkscape:window-height="716"
     inkscape:window-x="683"
     inkscape:window-y="24"
     inkscape:window-maximized="0" />
  <metadata
     id="metadata7190">
    <rdf:RDF>
      <cc:Work
         rdf:about="">
        <dc:format>image/svg+xml</dc:format>
        <dc:type
           rdf:resource="http://purl.org/dc/dcmitype/StillImage" />
        <dc:title></dc:title>
      </cc:Work>
    </rdf:RDF>
  </metadata>
  <g
     inkscape:label="Layer 1"
     inkscape:groupmode="layer"
     id="layer1"
     transform="translate(-109.63503,-138.07647)">
    <g
       id="g6505"
       transform="matrix(1.2499999,0,0,-1.2499999,-1436.7101,1068.3089)">
      <g
         transform="translate(1277.3682,724.04)"
         id="g130">
        <path
           inkscape:connector-curvature="0"
           id="path132"
           style="fill:#fab900;fill-opacity:1;fill-rule:nonzero;stroke:none"
           d="m 0,0 c 0,-11.126 -9.02,-20.146 -20.146,-20.146 -11.125,0 -20.146,9.02 -20.146,20.146 0,11.126 9.021,20.146 20.146,20.146 C -9.02,20.146 0,11.126 0,0" />
      </g>
      <g
         transform="translate(1253.3867,732.6704)"
         id="g134">
        <path
           inkscape:connector-curvature="0"
           id="path136"
           style="fill:#1d1d1b;fill-opacity:1;fill-rule:nonzero;stroke:none"
           d="m 0,0 3.094,2.547 0,-8.457 c 0,-0.41 0.333,-0.742 0.742,-0.742 0.409,0 0.741,0.332 0.741,0.742 l 0,8.457 L 7.671,0 c 0.139,-0.113 0.306,-0.169 0.472,-0.169 0.213,0 0.425,0.092 0.573,0.27 0.26,0.316 0.215,0.784 -0.102,1.044 L 3.836,5.079 -0.943,1.145 C -1.259,0.885 -1.304,0.417 -1.044,0.101 -0.783,-0.215 -0.317,-0.26 0,0 m 14.529,-2.246 0,-12.769 -21.386,0 0,12.769 8.999,0 0,-3.664 c 0,-0.936 0.758,-1.694 1.694,-1.694 0.935,0 1.694,0.758 1.694,1.694 l 0,3.664 8.999,0 z" />
      </g>
    </g>
  </g>
</svg>
