<?xml version="1.0" encoding="UTF-8" standalone="no"?>
<svg
   xmlns:dc="http://purl.org/dc/elements/1.1/"
   xmlns:cc="http://creativecommons.org/ns#"
   xmlns:rdf="http://www.w3.org/1999/02/22-rdf-syntax-ns#"
   xmlns:svg="http://www.w3.org/2000/svg"
   xmlns="http://www.w3.org/2000/svg"
   xmlns:sodipodi="http://sodipodi.sourceforge.net/DTD/sodipodi-0.dtd"
   xmlns:inkscape="http://www.inkscape.org/namespaces/inkscape"
   version="1.1"
   id="svg4968"
   viewBox="0 0 57.502331 99.999996"
   height="28.222221mm"
   width="16.228436mm"
   inkscape:version="0.91 r13725"
   sodipodi:docname="youAreIn.svg">
  <sodipodi:namedview
     pagecolor="#ffffff"
     bordercolor="#666666"
     borderopacity="1"
     objecttolerance="10"
     gridtolerance="10"
     guidetolerance="10"
     inkscape:pageopacity="0"
     inkscape:pageshadow="2"
     inkscape:window-width="1366"
     inkscape:window-height="744"
     id="namedview49"
     showgrid="false"
     fit-margin-top="0"
     fit-margin-left="0"
     fit-margin-right="0"
     fit-margin-bottom="0"
     inkscape:zoom="0.84358742"
     inkscape:cx="55.276418"
     inkscape:cy="83.959129"
     inkscape:window-x="0"
     inkscape:window-y="24"
     inkscape:window-maximized="1"
     inkscape:current-layer="svg4968" />
  <defs
     id="defs4970">
    <clipPath
       id="clipPath244"
       clipPathUnits="userSpaceOnUse">
      <path
         id="path246"
         d="M 0,842 1366,842 1366,0 0,0 0,842 Z"
         inkscape:connector-curvature="0" />
    </clipPath>
    <clipPath
       id="clipPath244-3"
       clipPathUnits="userSpaceOnUse">
      <path
         id="path246-6"
         d="M 0,842 1366,842 1366,0 0,0 0,842 Z"
         inkscape:connector-curvature="0" />
    </clipPath>
    <clipPath
       id="clipPath330"
       clipPathUnits="userSpaceOnUse">
      <path
         id="path332"
         d="M 0,842 1366,842 1366,0 0,0 0,842 Z"
         inkscape:connector-curvature="0" />
    </clipPath>
  </defs>
  <metadata
     id="metadata4973">
    <rdf:RDF>
      <cc:Work
         rdf:about="">
        <dc:format>image/svg+xml</dc:format>
        <dc:type
           rdf:resource="http://purl.org/dc/dcmitype/StillImage" />
        <dc:title></dc:title>
      </cc:Work>
    </rdf:RDF>
  </metadata>
  <g
     transform="matrix(0.50551389,0,0,0.50551389,41.354973,-76.199812)"
     id="layer1">
    <g
       id="g5839"
       transform="matrix(1.25,0,0,-1.25,-1167.4479,188.9127)">
      <flowRoot
         transform="matrix(0.8,0,0,-0.8,744.2979,49.587)"
         style="font-style:normal;font-weight:normal;font-size:40px;line-height:125%;font-family:sans-serif;letter-spacing:0px;word-spacing:0px;fill:#000000;fill-opacity:1;stroke:none;stroke-width:1px;stroke-linecap:butt;stroke-linejoin:miter;stroke-opacity:1"
         id="flowRoot6003"
         xml:space="preserve"><flowRegion
           id="flowRegion6005"><rect
             y="97.717628"
             x="40"
             height="84.285713"
             width="197.14285"
             id="rect6007" /></flowRegion><flowPara
           id="flowPara6009" /></flowRoot>      <flowRoot
         transform="matrix(0.8,0,0,-0.8,744.2979,49.587)"
         style="font-style:normal;font-weight:normal;font-size:40px;line-height:125%;font-family:sans-serif;letter-spacing:0px;word-spacing:0px;fill:#000000;fill-opacity:1;stroke:none;stroke-width:1px;stroke-linecap:butt;stroke-linejoin:miter;stroke-opacity:1"
         id="flowRoot6011"
         xml:space="preserve"><flowRegion
           id="flowRegion6013"><rect
             y="-57.282375"
             x="-89.285713"
             height="145"
             width="296.42856"
             id="rect6015" /></flowRegion><flowPara
           id="flowPara6017" /></flowRoot>      <path
         id="path280"
         style="fill:#fab900;fill-opacity:1;fill-rule:nonzero;stroke:none"
         d="m 959.51209,-85.5405 -90.822,0 0,70.67 90.822,0 0,-70.67 z"
         inkscape:connector-curvature="0" />
      <g
         transform="translate(868.69029,-14.8707)"
         id="g282">
        <path
           id="path284"
           style="fill:#fab900;fill-opacity:1;fill-rule:nonzero;stroke:none"
           d="m 0,0 c 0,-25.08 20.331,-45.411 45.411,-45.411 25.08,0 45.411,20.331 45.411,45.411 0,25.08 -20.331,45.411 -45.411,45.411 C 20.331,45.411 0,25.08 0,0"
           inkscape:connector-curvature="0" />
      </g>
      <g
         transform="translate(923.79239,-16.346196)"
         id="g286">
        <path
           id="path288"
           style="fill:#1d1d1b;fill-opacity:1;fill-rule:nonzero;stroke:none"
           d="m 0,0 -8.215,-8.216 -2.952,0 -8.216,8.216 0,2.951 8.216,8.216 2.952,0 L 0,2.951 0,0 Z"
           inkscape:connector-curvature="0" />
      </g>
      <g
         transform="translate(895.16789,-16.346196)"
         id="g290">
        <path
           id="path292"
           style="fill:#ffffff;fill-opacity:1;fill-rule:nonzero;stroke:none"
           d="m 0,0 -8.215,-8.216 -2.952,0 -8.216,8.216 0,2.951 8.216,8.216 2.952,0 L 0,2.951 0,0 Z"
           inkscape:connector-curvature="0" />
      </g>
      <g
         transform="translate(952.41739,-16.346196)"
         id="g294">
        <path
           id="path296"
           style="fill:#ffffff;fill-opacity:1;fill-rule:nonzero;stroke:none"
           d="m 0,0 -8.216,-8.216 -2.952,0 -8.215,8.216 0,2.951 8.215,8.216 2.952,0 L 0,2.951 0,0 Z"
           inkscape:connector-curvature="0" />
      </g>
      <g
         transform="translate(915.57749,-33.8043)"
         id="g298">
        <path
           id="path300"
           style="fill:#ffffff;fill-opacity:1;fill-rule:nonzero;stroke:none"
           d="m 0,0 8.215,-8.215 0,-2.952 -8.215,-8.216 -2.953,0 -8.215,8.216 0,2.952 L -2.953,0 0,0 Z"
           inkscape:connector-curvature="0" />
      </g>
      <g
         transform="translate(915.57749,23.4457)"
         id="g302">
        <path
           id="path304"
           style="fill:#ffffff;fill-opacity:1;fill-rule:nonzero;stroke:none"
           d="m 0,0 8.215,-8.216 0,-2.952 -8.215,-8.215 -2.953,0 -8.215,8.215 0,2.952 L -2.953,0 0,0 Z"
           inkscape:connector-curvature="0" />
      </g>
      <g
         transform="translate(909.54629,-2.0102997)"
         id="g306">
        <path
           id="path308"
           style="fill:#ffffff;fill-opacity:1;fill-rule:nonzero;stroke:none"
           d="m 0,0 -8.258,-8.173 -2.951,0.015 -8.173,8.258 0.015,2.952 8.257,8.173 2.952,-0.016 L 0.015,2.952 0,0 Z"
           inkscape:connector-curvature="0" />
      </g>
      <g
         transform="translate(909.3988,-30.6353)"
         id="g310">
        <path
           id="path312"
           style="fill:#ffffff;fill-opacity:1;fill-rule:nonzero;stroke:none"
           d="m 0,0 -8.257,-8.173 -2.952,0.016 -8.173,8.257 0.015,2.952 8.257,8.173 L -8.158,11.21 0.015,2.952 0,0 Z"
           inkscape:connector-curvature="0" />
      </g>
      <g
         transform="translate(938.17029,-2.1577957)"
         id="g314">
        <path
           id="path316"
           style="fill:#ffffff;fill-opacity:1;fill-rule:nonzero;stroke:none"
           d="m 0,0 -8.257,-8.173 -2.952,0.015 -8.173,8.258 0.015,2.952 8.258,8.173 2.952,-0.016 L 0.016,2.952 0,0 Z"
           inkscape:connector-curvature="0" />
      </g>
      <g
         transform="translate(938.02279,-30.781796)"
         id="g318">
        <path
           id="path320"
           style="fill:#ffffff;fill-opacity:1;fill-rule:nonzero;stroke:none"
           d="m 0,0 -8.257,-8.174 -2.952,0.016 -8.173,8.258 0.015,2.951 8.258,8.174 2.952,-0.016 L 0.016,2.951 0,0 Z"
           inkscape:connector-curvature="0" />
      </g>
      <text
         transform="scale(1,-1)"
         id="text322"
         style="font-variant:normal;font-weight:300;font-stretch:normal;font-size:14px;font-family:'Graphik Light';-inkscape-font-specification:Graphik-Light;writing-mode:lr-tb;fill:#000000;fill-opacity:1;fill-rule:nonzero;stroke:none"
         x="883.4975"
         y="76.783699">
        <tspan
           y="76.783699"
           x="883.4975"
           style="font-style:normal;font-variant:normal;font-weight:300;font-stretch:normal;font-family:Graphik;-inkscape-font-specification:'Graphik Light'"
           id="tspan324">you are in</tspan>
      </text>
      <g
         id="g326"
         transform="translate(230.01209,-135.1275)">
        <g
           clip-path="url(#clipPath330)"
           id="g328">
          <path
             id="path334"
             style="fill:#1d1d1b;fill-opacity:1;fill-rule:nonzero;stroke:none"
             d="m 729.5,7.413 -91,0 0,42.174 91,0 0,-42.174 z"
             inkscape:connector-curvature="0" />
        </g>
      </g>
      <text
         transform="scale(1,-1)"
         id="text336"
         style="font-variant:normal;font-weight:normal;font-stretch:normal;font-size:18px;font-family:'Graphik Regular';-inkscape-font-specification:Graphik-Regular;writing-mode:lr-tb;fill:#ffffff;fill-opacity:1;fill-rule:nonzero;stroke:none"
         x="884.7074"
         y="112.82278">
        <tspan
           y="112.82278"
           x="884.7074"
           style="font-style:normal;font-variant:normal;font-weight:normal;font-stretch:normal;font-family:Graphik;-inkscape-font-specification:Graphik"
           id="tspan338">ARENA</tspan>
      </text>
    </g>
  </g>
</svg>
